<?xml version="1.0" encoding="utf-8"?>
<!-- Generator: Adobe Illustrator 16.0.0, SVG Export Plug-In . SVG Version: 6.00 Build 0)  -->
<!DOCTYPE svg PUBLIC "-//W3C//DTD SVG 1.1//EN" "http://www.w3.org/Graphics/SVG/1.1/DTD/svg11.dtd">
<svg version="1.1" id="Layer_1" xmlns="http://www.w3.org/2000/svg" xmlns:xlink="http://www.w3.org/1999/xlink" x="0px" y="0px"
	 width="103.882px" height="104.404px" viewBox="0 0 103.882 104.404" enable-background="new 0 0 103.882 104.404"
	 xml:space="preserve">
<path fill="#6E6E73" d="M103.849,62.322c0-6.932,0-13.864,0-20.764c-3.032-0.833-5.743-1.596-8.465-2.321
	c-5.699-1.519-7.298-5.631-4.145-10.649c1.307-2.079,2.566-4.188,3.488-5.696C90.124,18.18,85.858,13.813,81.47,9.32
	c-0.951,0.566-2.096,1.221-3.213,1.917c-1.271,0.791-2.496,1.656-3.783,2.421c-3.537,2.104-8.184,0.271-9.323-3.709
	c-0.73-2.553-1.163-5.206-2.089-7.68c-0.352-0.942-1.689-2.122-2.609-2.149c-6.293-0.188-12.593-0.099-18.395-0.099
	c-0.599,0.627-0.772,0.725-0.811,0.861c-0.758,2.718-1.51,5.437-2.241,8.162c-1.427,5.311-5.715,6.973-10.397,4.03
	c-2.199-1.383-4.413-2.745-7.027-4.368c-3.854,4.043-7.418,7.774-10.969,11.52c-0.561,0.591-1.053,1.247-1.465,1.74
	c0.805,4.986,7.604,7.705,4.32,13.89C10.509,41.43,3.997,38.711,0,42.154C0,48.81,0,55.602,0,62.77
	c3.161,0.867,5.872,1.629,8.591,2.355c5.709,1.524,7.316,5.632,4.169,10.646c-1.306,2.079-2.567,4.187-3.417,5.574
	c4.482,4.881,8.615,9.382,12.799,13.937c1.332-0.795,2.475-1.451,3.592-2.148c1.27-0.791,2.494-1.66,3.78-2.424
	c3.548-2.105,8.185-0.271,9.326,3.717c0.73,2.553,1.163,5.207,2.089,7.681c0.352,0.942,1.689,2.121,2.609,2.148
	c6.293,0.188,12.593,0.099,18.975,0.099c0.906-3.308,1.703-6.162,2.472-9.023c1.429-5.318,5.707-6.979,10.397-4.035
	c2.199,1.381,4.41,2.742,6.107,3.797c4.795-4.602,9.1-8.734,13.334-12.799c-0.799-4.885-7.576-7.618-4.298-13.793
	C93.482,62.93,100.018,65.674,103.849,62.322z M52.178,74.57c-12.127,0.17-22.163-9.596-22.56-21.952
	c-0.393-12.229,9.741-22.65,22.193-22.827c12.114-0.172,22.162,9.61,22.561,21.962C74.766,63.985,64.64,74.395,52.178,74.57z"/>
</svg>
